<svg xmlns="http://www.w3.org/2000/svg" width="96" height="96" fill="none" viewBox="0 0 96 96" id="heart-hand">
  <path stroke="#000" stroke-width="5" d="M48.0001 15.9583L50.3002 13.5933C53.663 10.1358 59.1151 10.1358 62.4779 13.5933C65.8407 17.0508 65.8407 22.6566 62.4779 26.1141L50.8675 38.0517C49.2969 39.6666 46.7031 39.6666 45.1326 38.0517L33.5221 26.114C30.1593 22.6564 30.1593 17.0507 33.5221 13.5931C36.8849 10.1356 42.337 10.1356 45.6998 13.5931L48.0001 15.9583Z"></path>
  <path stroke="#000" stroke-linecap="round" stroke-width="5" d="M44.9329 62.2633L65.7985 58.1038C67.7596 57.8501 69.1721 56.0827 68.9988 54.0994C68.8255 52.1161 67.1282 50.6243 65.1532 50.7194L45.4386 51.7602C34.372 49.3156 22.6855 53.0989 17.1237 59.7177L7.66126 71.5763C5.47859 73.5677 5.44153 77.0087 7.58078 79.0473L12.3651 83.6065C14.5043 85.6451 17.9143 85.4183 19.7687 83.1141L29.9073 72.0526C50.1322 75.3111 67.6605 67.9795 73.8965 63.9064L88.4165 51.7608C90.0564 50.6137 90.4911 48.3604 89.397 46.6786C88.3241 45.0291 86.1575 44.5123 84.4637 45.5019C84.4637 45.5019 68.1916 57.6812 67.2771 57.5739"></path>
</svg>
