<svg xmlns="http://www.w3.org/2000/svg" viewBox="0 0 128 128" id="mothers">
  <path d="M86 77c-5.51 0-10-4.49-10-10s4.49-10 10-10 10 4.49 10 10-4.49 10-10 10zm0-14c-2.21 0-4 1.79-4 4s1.79 4 4 4 4-1.79 4-4-1.79-4-4-4zM44 27c-7.17 0-13-5.83-13-13S36.83 1 44 1s13 5.83 13 13-5.83 13-13 13zm0-20c-3.86 0-7 3.14-7 7s3.14 7 7 7 7-3.14 7-7-3.14-7-7-7z"></path>
  <path d="m105.95 107.46-1.76-9.67c-1.58-8.67-8.52-15.22-17.27-16.28-10.71-1.3-18.97-9.7-20.08-20.42l-1.09-10.43A21.876 21.876 0 0 0 43.94 31C31.84 31 22 40.84 22 52.94V77c0 3.91 2.51 7.25 6 8.49V95c0 3.31 2.69 6 6 6h.22l1.79 23.23A2.999 2.999 0 0 0 39 127c.08 0 .16 0 .23-.01a3 3 0 0 0 2.76-3.22L40.24 101h7.52l-1.75 22.77A3 3 0 0 0 49 127c1.55 0 2.87-1.2 2.99-2.77L53.78 101H54c3.31 0 6-2.69 6-6V78c0-1.66-1.34-3-3-3s-3 1.34-3 3v17H34V83c0-1.66-1.34-3-3-3-1.65 0-3-1.35-3-3V52.94C28 44.15 35.15 37 43.94 37c8.19 0 15 6.14 15.85 14.28l1.09 10.43c.9 8.62 5.46 16.03 12.13 20.71V98c0 3.62 1.49 6.9 3.89 9.26l1.12 16.93c.1 1.59 1.42 2.81 2.99 2.81.06 0 .13 0 .19-.01 1.65-.1 2.91-1.53 2.81-3.18l-.82-13.13c.91.2 1.85.32 2.83.32h2.81l-.8 12.81a3 3 0 0 0 2.81 3.18c.06 0 .13.01.19.01 1.57 0 2.89-1.22 2.99-2.81l1-16c.05-.83-.24-1.64-.81-2.24S92.83 105 92 105h-6c-3.86 0-7-3.14-7-7V85.66c2.27.89 4.68 1.51 7.2 1.81 6.13.74 10.99 5.32 12.09 11.39l1.76 9.67a2.997 2.997 0 0 0 3.49 2.41c1.63-.28 2.71-1.85 2.41-3.48z"></path>
</svg>
